# xmcd
#
# Track frame offsets:
# 150
# 13776
# 23468
# 37156
# 48366
# 59480
# 71613
# 84710
# 97213
# 112169
#
# Disc length: 1655 seconds
#
# Revision: 0
# Processed by: cddbd v1.4PL0 Copyright (c) Steve Scherf et al.
# Submitted via: Axialis_AX_CDPlayer 2.6
#
DISCID=8b06750a
DTITLE=Dolly Parton - Coat Of Many Colors
DYEAR=1900
DGENRE=
TTITLE0=Coat Of Many Colors
TTITLE1=Traveling Man
TTITLE2=My Blue Tears
TTITLE3=If I Lost My Mind
TTITLE4=The Mistery Of The Mistery
TTITLE5=She Never Met A Man
TTITLE6=Early Morning Breeze
TTITLE7=The Way I See You
TTITLE8=Here I Am
TTITLE9=A Better Place To Live
EXTD=
EXTT0=
EXTT1=
EXTT2=
EXTT3=
EXTT4=
EXTT5=
EXTT6=
EXTT7=
EXTT8=
EXTT9=
PLAYORDER=
